Coordinates
version=1
nRows=16
nColumns=33
inDegrees=yes

Units are S.I. units (second, meters, Newtons, ...)
Angles are in degrees.

endheader
time	ground_thorax_rot_x	ground_thorax_rot_y	ground_thorax_rot_z	ground_thorax_tx	ground_thorax_ty	ground_thorax_tz	clav_prot_r	clav_elev_r	scapula_abduction_r	scapula_elevation_r	scapula_upward_rot_r	scapula_winging_r	shoulder_elv_r	plane_of_elev_r	axial_rot_r	elbow_flexion_r	pro_sup_r	wrist_flex_r	wrist_dev_r	clav_prot_l	clav_elev_l	scapula_abduction_l	scapula_elevation_l	scapula_upward_rot_l	scapula_winging_l	shoulder_elv_l	plane_of_elev_l	axial_rot_l	elbow_flexion_l	pro_sup_l	wrist_flex_l	wrist_dev_l
     12.83000000	     25.78252535	     30.73723579	     44.77211148	    -70.71940891	    791.61625069	    -39.40617315	     12.06046195	     34.85112633	     23.65170655	     45.00000000	    -45.00000000	   2075.94709187	  -3166.20159348	     23.18103423	    179.99999979	   -354.67935935	    185.41564416	     13.23064918	     13.22348109	    -10.06256883	    -45.00000000	    -38.42416272	     45.00000000	    -45.00000000	   2624.55545623	  -3329.22376210	    135.74968222	   -134.11039127	    -10.28636286	    406.14286771	     11.90476701	    -16.36091407
     12.84000000	     26.08942349	     30.39045278	     44.26575196	    -72.93585908	    792.71158050	    -39.61270214	     12.44574309	     34.96924102	     23.83853227	     45.00000000	    -45.00000000	   2075.76713118	  -3166.25459578	     23.22124443	    179.99999979	   -354.71001899	    185.27465818	     13.28779234	     13.33130303	    -10.48219240	    -45.00000000	    -38.30228700	     45.00000000	    -45.00000000	   2624.44282865	  -3329.05643225	    135.77741534	   -133.86029118	    -10.33911730	    405.99072192	     12.08520278	    -16.39418796
     12.85000000	     26.15807800	     30.23650297	     44.06424129	    -75.13530770	    793.85520177	    -39.83613191	     12.28060546	     34.95732010	     23.83346669	     45.00000000	    -45.00000000	   2075.63871217	  -3166.22705578	     23.20728039	    179.99999979	   -354.64242232	    185.26904119	     13.30966523	     13.43382101	    -10.26782782	    -45.00000000	    -38.42166140	     45.00000000	    -45.00000000	   2624.60533643	  -3329.00447944	    135.72546565	   -133.80312631	    -10.34682194	    405.83428297	     12.16714765	    -16.41807937
     12.86000000	     26.28993002	     29.98370600	     43.77501076	    -77.31731605	    795.04887677	    -40.07279830	     12.29601202	     34.92582575	     23.86962998	     45.00000000	    -45.00000000	   2075.52244083	  -3166.19643035	     23.22566169	    179.99999979	   -354.65417459	    185.33015751	     13.36338652	     13.54988030	    -10.19499954	    -45.00000000	    -38.48952414	     45.00000000	    -45.00000000	   2624.70420129	  -3328.92204392	    135.69108926	   -133.81104982	    -10.38375350	    405.68191904	     12.25185192	    -16.42021483
     12.87000000	     26.39479022	     29.79120334	     43.52030782	    -79.47068721	    796.28985341	    -40.32106916	     12.26332488	     34.88628311	     23.83568817	     45.00000000	    -45.00000000	   2075.42149687	  -3166.15693660	     23.25755030	    179.99999979	   -354.62219460	    185.41416377	     13.40598321	     13.64307636	    -10.06603158	    -45.00000000	    -38.57663995	     45.00000000	    -45.00000000	   2624.81433327	  -3328.83542315	    135.69838959	   -133.78059509	    -10.44280382	    405.53863433	     12.31670415	    -16.40663364
     12.88000000	     26.47044402	     29.58192047	     43.29735753	    -81.58895864	    797.57628507	    -40.57885319	     12.27975817	     34.83411066	     23.79405282	     45.00000000	    -45.00000000	   2075.33455588	  -3166.07390313	     23.27692368	    179.99999979	   -354.62115504	    185.48866031	     13.45663788	     13.71510407	     -9.96404047	    -45.00000000	    -38.63226214	     45.00000000	    -45.00000000	   2624.88197131	  -3328.78518772	    135.69226103	   -133.92566026	    -10.43925204	    405.39116689	     12.37023164	    -16.40861812
     12.89000000	     26.62199518	     29.29360670	     42.97879150	    -83.66609186	    798.90571492	    -40.84370178	     12.20866028	     34.85509469	     23.89022447	     45.00000000	    -45.00000000	   2075.19902421	  -3166.06834598	     23.34077080	    179.99999979	   -354.54820261	    185.56357057	     13.50390745	     13.85866679	     -9.86385220	    -45.00000000	    -38.73084024	     45.00000000	    -45.00000000	   2625.00811406	  -3328.68416907	    135.61976241	   -133.66677865	    -10.49708778	    405.25847498	     12.46385259	    -16.42520612
     12.90000000	     26.77519514	     29.02730172	     42.63264273	    -85.69906282	    800.27704521	    -41.11326121	     12.21822753	     34.79311733	     23.83221894	     45.00000000	    -45.00000000	   2075.13913015	  -3165.96655290	     23.44608205	    179.99999979	   -354.48475164	    185.61186314	     13.53348560	     13.99645337	     -9.74920794	    -45.00000000	    -38.78630581	     45.00000000	    -45.00000000	   2625.10448214	  -3328.65735064	    135.52907135	   -133.66942168	    -10.48964755	    405.12547902	     12.52505735	    -16.44685115
     12.91000000	     26.80867734	     28.87122811	     42.47145197	    -87.68395467	    801.68860460	    -41.38551473	     12.24425254	     34.73706712	     23.75500321	     45.00000000	    -45.00000000	   2075.03069405	  -3165.91879239	     23.43333658	    179.99999979	   -354.55630057	    185.61419274	     13.61048010	     14.00672385	     -9.66149477	    -45.00000000	    -38.85198041	     45.00000000	    -45.00000000	   2625.11061937	  -3328.52331299	    135.61435480	   -133.70246101	    -10.55209757	    404.99907863	     12.54505060	    -16.40380921
     12.92000000	     26.99738699	     28.57330493	     42.09754916	    -89.61995449	    803.14132225	    -41.65930047	     12.20128822	     34.74997045	     23.87370993	     45.00000000	    -45.00000000	   2074.88710546	  -3165.90337557	     23.51086237	    179.99999979	   -354.44847213	    185.61349293	     13.64992565	     14.18332970	     -9.59801223	    -45.00000000	    -38.85894333	     45.00000000	    -45.00000000	   2625.21330483	  -3328.45046576	    135.46617254	   -133.65645048	    -10.57172459	    404.87461751	     12.65817233	    -16.47027275
     12.93000000	     27.01270680	     28.42736184	     41.94383895	    -91.49979073	    804.63075013	    -41.93301606	     12.25350308	     34.65299859	     23.70893594	     45.00000000	    -45.00000000	   2074.83195205	  -3165.79247622	     23.52012585	    179.99999979	   -354.53814676	    185.55866709	     13.72463142	     14.18309036	     -9.48694939	    -45.00000000	    -38.98588650	     45.00000000	    -45.00000000	   2625.23321670	  -3328.36474542	    135.54520697	   -133.65014501	    -10.61359051	    404.76205662	     12.64365706	    -16.41886246
     12.94000000	     27.24351764	     28.12234832	     41.52862168	    -93.32315291	    806.15708208	    -42.20640709	     12.18964472	     34.68576941	     23.91171023	     45.00000000	    -45.00000000	   2074.61805297	  -3165.83624030	     23.59519100	    179.99999979	   -354.43184348	    185.50645785	     13.78296207	     14.38046826	     -9.41512306	    -45.00000000	    -38.87922242	     45.00000000	    -45.00000000	   2625.28588100	  -3328.23153566	    135.34531746	   -133.63208355	    -10.66264303	    404.65101136	     12.79635869	    -16.52470259
     12.95000000	     27.11946875	     28.07123431	     41.58686149	    -95.09144781	    807.72040093	    -42.47960794	     12.28929701	     34.55572582	     23.66338586	     45.00000000	    -45.00000000	   2074.62766823	  -3165.67150374	     23.49660162	    179.99999979	   -354.55703512	    185.37830151	     13.85763229	     14.28700683	     -9.35941306	    -45.00000000	    -39.12375483	     45.00000000	    -45.00000000	   2625.28605854	  -3328.18819361	    135.56591468	   -133.64363384	    -10.64652237	    404.53621804	     12.70008013	    -16.43285363
     12.96000000	     27.11260553	     27.96775515	     41.50424669	    -96.80784343	    809.32173103	    -42.75309885	     12.25443811	     34.53062996	     23.68118233	     45.00000000	    -45.00000000	   2074.45884685	  -3165.64736229	     23.44267170	    179.99999979	   -354.59206224	    185.22261276	     13.93724769	     14.31325457	     -9.20055337	    -45.00000000	    -39.23906705	     45.00000000	    -45.00000000	   2625.32000942	  -3328.09456134	    135.64656292	   -133.61407014	    -10.63089993	    404.40012322	     12.74713875	    -16.48029957
     12.97000000	     27.28334480	     27.67014520	     41.23283441	    -98.47057547	    810.95686056	    -43.02622541	     12.21618678	     34.55046947	     23.89645283	     45.00000000	    -45.00000000	   2074.28621194	  -3165.66994265	     23.46933506	    179.99999979	   -354.56825572	    185.05719105	     14.04115342	     14.45514685	     -9.17627775	    -45.00000000	    -39.19373606	     45.00000000	    -45.00000000	   2625.44418944	  -3328.00120923	    135.55570058	   -133.49827009	    -10.66657459	    404.26428495	     12.85341447	    -16.57119248
     12.98000000	     27.29510734	     27.55937517	     41.04784262	   -100.08425811	    812.62722598	    -43.29903179	     12.27669472	     34.43434060	     23.74711373	     45.00000000	    -45.00000000	   2074.19994550	  -3165.59018754	     23.46997725	    179.99999979	   -354.66822114	    184.83677741	     14.12312071	     14.48364597	     -9.05616921	    -45.00000000	    -39.33032412	     45.00000000	    -45.00000000	   2625.41576568	  -3327.89885378	    135.55546267	   -133.47153478	    -10.66967007	    404.10883632	     12.86607916	    -16.57110966
